<?xml version="1.0" standalone="yes"?>
<svg xmlns="http://www.w3.org/2000/svg" width="512" height="512">
<path style="fill:#ffffff; stroke:none;" d="M0 0L0 512L512 512L512 0L0 0z"/>
<path style="fill:#01ccde; stroke:none;" d="M104 136L104 80L321 80C317.326 74.7845 311.152 66.8718 305 64.6034C292.689 60.0645 272.135 64 259 64L104 64C104 55.4419 101.615 41.8777 109.189 35.8033C119.287 27.7045 141.774 32 154 32L273 32C269.326 26.7845 263.152 18.8718 257 16.6034C247.493 13.0981 232.116 16 222 16L141 16C126.977 16 108.448 12.44 97.0401 22.3287C87.7873 30.349 88 40.7809 88 52L88 96C88 103.09 86.1349 113.305 88.6034 120C90.8718 126.152 98.7845 132.326 104 136z"/>
<path style="fill:#01a6d1; stroke:none;" d="M258 16C261.674 21.2155 267.848 29.1282 274 31.3966C284.017 35.09 300.335 32 311 32L428 32C441.333 32 454.667 31.9365 468 32.0008C474.181 32.0306 481.262 32.5177 485.11 38.0941C489.857 44.9724 488 56.1018 488 64L306 64L322 79.3966L361 80L488 80L488 207L488.603 246L504 262L504 88C504 69.3748 510.462 37.2629 495.826 23.2099C481.642 9.59052 449.259 16 431 16L258 16z"/>
<path style="fill:#016aa2; stroke:none;" d="M490 19L491 20L490 19M498 26L499 27L498 26z"/>
<path style="fill:#ffffff; stroke:none;" d="M104 64L488 64C488 55.8881 490.149 43.8318 484.57 37.1088C479.593 31.111 470.978 32 464 32L414 32L185 32L130 32C122.549 32 112.779 30.6619 107.43 37.1088C101.851 43.8318 104 55.8881 104 64z"/>
<path style="fill:#016aa2; stroke:none;" d="M480 33L481 34L480 33M483 35L484 36L483 35z"/>
<path style="fill:#01a6d1; stroke:none;" d="M88 36L89 37L88 36M107 36L108 37L107 36z"/>
<path style="fill:#016aa2; stroke:none;" d="M484 36L485 37L484 36z"/>
<path style="fill:#01a6d1; stroke:none;" d="M105 39L106 40L105 39z"/>
<path style="fill:#016aa2; stroke:none;" d="M486 39L487 40L486 39z"/>
<path style="fill:#01ccde; stroke:none;" d="M116.109 40.7423C111.336 42.7951 110.544 50.9487 114.434 54.2577C117.817 57.1356 127.963 56.947 131.891 55.2577C136.664 53.2049 137.456 45.0513 133.566 41.7423C130.183 38.8645 120.037 39.053 116.109 40.7423M148.109 40.7423C143.336 42.7951 142.544 50.9486 146.434 54.2577C149.817 57.1356 159.963 56.947 163.891 55.2577C168.664 53.2049 169.456 45.0513 165.566 41.7423C162.183 38.8645 152.037 39.053 148.109 40.7423M180.109 40.7423C175.336 42.7951 174.544 50.9486 178.434 54.2577C181.817 57.1356 191.963 56.947 195.891 55.2577C200.664 53.2049 201.456 45.0513 197.566 41.7423C194.183 38.8645 184.037 39.053 180.109 40.7423z"/>
<path style="fill:#ffffff; stroke:none;" d="M104 80L104 161C146.779 155.594 190.031 176.967 203.806 220C209.788 238.691 206.486 256.877 208.058 276C208.554 282.033 213.565 286.276 215.211 292C218.875 304.748 215.076 317.043 209 328L251 328C254.107 320.661 263.708 314.726 265.198 307C269.58 284.287 234.334 299.016 231.228 282C229.553 272.821 227.344 244.631 235.109 238.514C245.57 230.272 259.223 241.005 264.661 225C268.691 213.14 246.44 205.813 252.183 194C256.684 184.741 268.651 176.134 276 169.015C278.998 166.111 282.428 162.611 287 163.463C299.779 165.845 302.459 181.349 316.981 175.046C327.125 170.643 321.376 156.246 326.303 148.109C328.72 144.118 332.804 144.023 337 144.001C347.249 143.947 363.395 140.953 372.985 144.603C386.204 149.635 374.323 170.158 388.001 175.6C400.991 180.768 404.688 166.672 416 164.064C420.378 163.054 424.053 166.277 427 169.044C434.279 175.879 448.814 186.304 451.897 196C455.39 206.986 435.373 213.144 438.793 224C439.716 226.929 441.164 232.051 443.699 233.976C450.185 238.901 461.293 234.037 467.891 239.434C475.638 245.77 473.474 273.677 471.772 283C468.979 298.292 431.189 286.806 438.377 309C439.977 313.939 448.338 325.367 453.184 327.397C463.837 331.858 485.049 328.804 487.532 316C492.172 292.066 488 263.399 488 239L488 80L104 80z"/>
<path style="fill:#01a6d1; stroke:none;" d="M88 121L88 166C59.7637 171.033 37.7143 204.681 33.0841 231C31.8889 237.794 30.1555 248.361 32.6034 255C34.8718 261.152 42.7845 267.326 48 271C48 255.866 47.1917 239.438 52.436 225C67.7336 182.885 109.377 170.839 149 182C137.026 165.002 124.58 157.179 104 161C104 142.87 104.228 132.431 88 121z"/>
<path style="fill:#01ccde; stroke:none;" d="M262 293L262 297L283 314C286.705 306.291 279.171 283.71 271.892 278.858C266.345 275.161 254.561 275.135 248 275C248 269.851 245.738 257.479 249.603 253.603C254.647 248.547 265.805 252.718 271.892 249.012C276.492 246.211 277.282 239.641 279.065 235C280.829 230.406 284.39 226.013 284.769 221C285.359 213.172 276.422 203.812 271 199L271 198L286 183L287 183C299.591 197.408 307.692 197.587 324 190.861C328.051 189.19 333.554 188.392 336.411 184.775C340.835 179.176 340.128 166.9 341 160L363 160C363.135 166.536 362.702 180.688 367.434 185.581C371.057 189.328 378.304 190.226 383 192.284C387.756 194.368 392.562 197.674 398 196.768C411.09 194.585 412.809 179.135 425.574 192.285C436.147 203.178 420.822 207.215 418.665 218C417.675 222.949 421.431 227.729 423.334 232C425.497 236.854 426.249 243.614 429.702 247.721C434.234 253.113 448.414 252.864 455 253C455 258.144 457.263 270.528 453.397 274.397C448.656 279.14 437.852 275.376 432.055 278.938C427.247 281.892 426.504 288.169 424.547 293C422.626 297.742 418.593 302.782 418.318 308C417.934 315.271 426.96 324.527 432 329L432 330L417 345L416 345C411.19 339.495 401.965 330.238 394 331.229C388.836 331.872 383.839 335.529 379 337.388C374.936 338.95 369.549 339.58 366.728 343.225C362.233 349.028 362.894 360.925 362 368L340 368L337 343L328 339L308 330L301 332C304.145 338.744 310.81 343.754 315.985 348.996C328.839 362.016 351.604 395.495 373.891 382.972C386.616 375.823 372.165 352.605 393 351.218C402.043 350.617 407.562 364.506 417 364.836C428.124 365.226 434.072 349.492 443 345.028C459.551 336.752 480.412 351.586 495.907 336.815C509.174 324.168 504 298.677 504 282C504 276.171 505.634 267.324 502.972 262C500.1 256.255 493.168 250.64 488 247L488 298C488 305.221 489.484 314.634 485.272 320.985C474.163 337.734 440.438 326.389 438.373 307.424C436.187 287.349 461.625 297.156 469.566 288.697C472.698 285.361 472 280.201 472 276C472.001 266.389 472.556 256.591 471.956 247C471.064 232.757 454.114 238.558 445.214 234.411C437.728 230.924 437.819 220.381 441.878 214.986C443.785 212.451 445.634 210.1 448 208C442.049 196.529 429.088 187.088 420 178C417.247 175.247 413.242 169.467 409.039 169.113C404.719 168.75 400.718 174.831 397 176.477C393.018 178.239 387.584 175.64 384.148 173.471C376.704 168.77 382.23 153.925 377.258 147.148C374.582 143.502 370.012 144.002 366 144C355.875 143.995 338.471 140.629 329.189 144.742C316.837 150.216 329.365 170.972 313 176.365C300.674 180.427 293.206 156.586 280 164.742C271.77 169.825 248.926 189.376 251.423 200C253.47 208.712 267.383 215.51 264.225 225C258.703 241.592 242.82 229.306 233.434 239.303C230.129 242.823 230.979 248.572 231.001 253C231.073 268.052 248.663 286.781 262 293z"/>
<path style="fill:#01a6d1; stroke:none;" d="M379 155L380 156L379 155z"/>
<path style="fill:#01ccde; stroke:none;" d="M128 160L170.329 197.671L208 240C202.984 197.127 171.434 164.262 128 160z"/>
<path style="fill:#01a6d1; stroke:none;" d="M130 160L131 161L130 160z"/>
<path style="fill:#ffffff; stroke:none;" d="M341 160C339.706 166.969 340.605 176.751 337.012 182.956C334.288 187.659 328.657 188.602 324 190.45C319.123 192.385 313.326 196.803 308 196.783C300.514 196.756 292.477 187.415 287 183L286 183L271 198L271 199C275.364 204.498 285.429 213.434 284.721 221C284.25 226.032 280.215 231.26 278.425 236C276.664 240.664 275.625 246.308 270.956 249.012C265.531 252.153 252.839 248.788 249.028 253.603C245.751 257.743 248 269.867 248 275C254.973 275.299 267.58 275.11 272.775 280.228C276.832 284.225 277.862 290.899 280.015 296C281.686 299.961 285.272 304.477 284.476 309C282.436 320.589 265.528 324.305 277.005 336C279.224 338.261 281.87 341.744 285 342.744C291.832 344.926 299.287 332.236 306 330.989C310.583 330.138 315.018 333.644 319 335.41C323.9 337.583 330.783 338.748 334.772 342.419C340.149 347.368 339.703 361.084 340 368L362 368C363.315 360.922 362.479 351.366 366.14 345.044C368.902 340.274 374.262 339.541 379 337.771C384.025 335.893 389.573 331.552 395 331.322C402.341 331.011 410.67 340.704 416 345L417 345L432 330L432 329C427.787 323.692 420.185 316.784 418.757 310C417.425 303.673 427.517 282.19 433.019 278.938C438.238 275.853 450.295 279.043 453.972 274.397C457.249 270.257 455 258.133 455 253C448.249 252.71 435.332 252.899 430.419 247.721C426.626 243.724 425.903 236.917 423.688 232C421.928 228.092 418.45 223.491 418.897 219C420.08 207.131 437.658 203.885 425.995 192C423.776 189.739 421.13 186.256 418 185.256C411.047 183.035 403.997 195.866 397 196.728C392.379 197.298 388.002 194.139 384 192.309C379.103 190.069 372.242 189.269 368.228 185.581C362.85 180.639 363.297 166.91 363 160L341 160z"/>
<path style="fill:#01a6d1; stroke:none;" d="M409 167C418.022 179.807 435.413 199.219 449 207C450.354 203.743 452.901 200.737 452.362 197.003C451.501 191.042 444.976 185.995 440.999 182C430.92 171.876 423.682 159.801 409 167z"/>
<path style="fill:#01ccde; stroke:none;" d="M412 165L413 166L412 165z"/>
<path style="fill:#01a6d1; stroke:none;" d="M293 166L294 167L293 166M156 167L157 168L156 167M298 170L299 171L298 170M404 171L405 172L404 171z"/>
<path style="fill:#01ccde; stroke:none;" d="M70 174L71 175L70 174z"/>
<path style="fill:#01a6d1; stroke:none;" d="M400 174L401 175L400 174M315 175L316 176L315 175z"/>
<path style="fill:#ffffff; stroke:none;" d="M48 272L56 272C56 265.275 54.8983 257.444 57.108 251C66.5227 223.545 106.554 232 129 232C143.368 232 162.226 228.375 173.985 238.329C184.841 247.518 184 259.082 184 272L192 272C192 247.716 192.135 222.76 175.674 203C143.195 164.01 80.4535 169.803 56.4892 215C47.1832 232.551 48 252.728 48 272z"/>
<path style="fill:#01a6d1; stroke:none;" d="M390 176L391 177L390 176M173 177L174 178L173 177z"/>
<path style="fill:#016aa2; stroke:none;" d="M396 177L397 178L396 177z"/>
<path style="fill:#01ccde; stroke:none;" d="M96 180L97 181L96 180M143 180L144 181L143 180M61 181L62 182L61 181M146.667 181.333L147.333 181.667L146.667 181.333z"/>
<path style="fill:#016aa2; stroke:none;" d="M91 182L92 183L91 182M148 182L149 183L148 182z"/>
<path style="fill:#01a6d1; stroke:none;" d="M151 183L152 184L151 183z"/>
<path style="fill:#01ccde; stroke:none;" d="M85 185L86 186L85 185z"/>
<path style="fill:#01a6d1; stroke:none;" d="M156.667 186.333L157.333 186.667L156.667 186.333M158 187L159 188L158 187M159 188L160 189L159 188M185 188L186 189L185 188z"/>
<path style="fill:#01ccde; stroke:none;" d="M53 189L54 190L53 189z"/>
<path style="fill:#01a6d1; stroke:none;" d="M186 189L187 190L186 189M162 190L163 191L162 190z"/>
<path style="fill:#01ccde; stroke:none;" d="M448 190L449 191L448 190z"/>
<path style="fill:#01a6d1; stroke:none;" d="M425 191L426 192L425 191z"/>
<path style="fill:#016aa2; stroke:none;" d="M49 194L50 195L49 194z"/>
<path style="fill:#01a6d1; stroke:none;" d="M167 194L168 195L167 194M190 194L191 195L190 194M388 194L389 195L388 194M169 196L170 197L169 196z"/>
<path style="fill:#01ccde; stroke:none;" d="M452 196L453 197L452 196M69 197L70 198L69 197z"/>
<path style="fill:#01a6d1; stroke:none;" d="M171 198L172 199L171 198M173 200L174 201L173 200z"/>
<path style="fill:#01ccde; stroke:none;" d="M341 200.439C273.971 210.908 270.588 307.138 334 325.964C342.937 328.617 353.786 329 363 327.561C429.02 317.25 434.091 219.802 370 202.012C360.958 199.502 350.296 198.987 341 200.439z"/>
<path style="fill:#01a6d1; stroke:none;" d="M371 202L372 203L371 202z"/>
<path style="fill:#01ccde; stroke:none;" d="M451 202L452 203L451 202z"/>
<path style="fill:#01a6d1; stroke:none;" d="M329 203L330 204L329 203z"/>
<path style="fill:#01ccde; stroke:none;" d="M449 204L450 205L449 204z"/>
<path style="fill:#01a6d1; stroke:none;" d="M177 205L178 206L177 205M179 208L180 209L179 208M446 208L447 209L446 208M389 211L390 212L389 211z"/>
<path style="fill:#016aa2; stroke:none;" d="M422 211L423 212L422 211z"/>
<path style="fill:#01a6d1; stroke:none;" d="M444 211L445 212L444 211M182 212L183 213L182 212M443 212L444 213L443 212z"/>
<path style="fill:#01ccde; stroke:none;" d="M57 213L58 214L57 213z"/>
<path style="fill:#016aa2; stroke:none;" d="M182 213L183 214L182 213z"/>
<path style="fill:#01a6d1; stroke:none;" d="M310 214L311 215L310 214M284 216L285 217L284 216z"/>
<path style="fill:#ffffff; stroke:none;" d="M351 216.594C304.838 218.334 286.693 281.354 328 305.12C336.989 310.292 346.823 311.423 357 310.961C415.805 308.291 409.523 214.389 351 216.594z"/>
<path style="fill:#01a6d1; stroke:none;" d="M440 216L441 217L440 216M185 218C190.287 236.39 192 252.756 192 272L184 272C184 259.559 185.368 247.351 174.96 238.329C163.222 228.155 143.443 232 129 232C106.695 232 65.517 223.242 56.9051 251C54.898 257.469 56 265.288 56 272L49 272L72 295C72 283.755 67.7229 261.066 76.3943 252.394C81.6127 247.176 90.2712 248 97 248L146 248C152.736 248.003 160.833 247.895 165.11 254.094C170.532 261.951 168 275.954 168 285C168 309.173 174.688 361.522 136 359L151 375L152 375C159.097 370.482 166.857 367.449 172.56 360.961C176.251 356.761 179.12 346.819 184.213 344.603C188.985 342.527 196.864 344 202 344L241 344C246.579 344 254.897 342.476 260 345.028C268.885 349.47 273.57 362.744 284 364.373C293.045 365.785 299.494 354.07 307 350.916C310.561 349.42 314.34 352.03 318 352L321 354L301 333C297.323 335.69 291.599 342.013 287 342.408C284.132 342.655 281.835 339.784 280 337.995C269.999 328.242 274.136 324.756 282 315L282 314L263 296L264.633 307L251 328L209 328C216.507 318.153 219.007 302.002 214.892 290C213.309 285.385 209.369 281.748 208.303 277C205.782 265.771 210.48 253.159 207.682 242C205.702 234.103 191.866 222.077 185 218M338 218L339 219L338 218z"/>
<path style="fill:#016aa2; stroke:none;" d="M54 219L55 220L54 219z"/>
<path style="fill:#01a6d1; stroke:none;" d="M335 219L336 220L335 219z"/>
<path style="fill:#01ccde; stroke:none;" d="M35 221L36 222L35 221z"/>
<path style="fill:#01a6d1; stroke:none;" d="M284 223L285 224L284 223M438 223L439 224L438 223z"/>
<path style="fill:#016aa2; stroke:none;" d="M52 224L53 225L52 224z"/>
<path style="fill:#01ccde; stroke:none;" d="M187 224L188 225L187 224z"/>
<path style="fill:#01a6d1; stroke:none;" d="M205 225L206 226L205 225z"/>
<path style="fill:#016aa2; stroke:none;" d="M439 225L440 226L439 225z"/>
<path style="fill:#01ccde; stroke:none;" d="M188 226L189 227L188 226z"/>
<path style="fill:#01a6d1; stroke:none;" d="M404 226L405 227L404 226z"/>
<path style="fill:#016aa2; stroke:none;" d="M51 227L52 228L51 227z"/>
<path style="fill:#01a6d1; stroke:none;" d="M406 229L407 230L406 229M422 229L423 230L422 229M441 230L442 231L441 230z"/>
<path style="fill:#01ccde; stroke:none;" d="M189 231L190 232L189 231z"/>
<path style="fill:#01a6d1; stroke:none;" d="M386 231L387 232L386 231M279 233L280 234L279 233M294 234L295 235L294 234M207 235L208 236L207 235M238 236L239 237L238 236M207 237L208 238L207 237M465 237L466 238L465 237M392 239L393 240L392 239z"/>
<path style="fill:#ffffff; stroke:none;" d="M84 248.468C77.2836 249.771 73.3007 254.307 72.3009 261C70.0517 276.058 72 292.774 72 308C72 319.151 70.4304 332.815 75.9159 343C87.3715 364.27 123.472 363.216 144 358.472C175.813 351.121 168 308.126 168 284C168 275.052 170.708 260.505 164.57 253.109C159.402 246.881 150.219 248 143 248C124.246 248 102.407 244.9 84 248.468z"/>
<path style="fill:#016aa2; stroke:none;" d="M57 249L58 250L57 249z"/>
<path style="fill:#01ccde; stroke:none;" d="M160 249L161 250L160 249z"/>
<path style="fill:#016aa2; stroke:none;" d="M76 251L77 252L76 251M163 251L164 252L163 251z"/>
<path style="fill:#01a6d1; stroke:none;" d="M257 251L258 252L257 251z"/>
<path style="fill:#016aa2; stroke:none;" d="M75 252L76 253L75 252M164 252L165 253L164 252z"/>
<path style="fill:#01ccde; stroke:none;" d="M166 255L167 256L166 255z"/>
<path style="fill:#016aa2; stroke:none;" d="M32 256C32 262.649 33.1557 270.502 31.6968 277C30.5533 282.093 26.2494 285.92 24.7894 291C20.1583 307.112 24.6179 328.931 42 334.892C46.4712 336.425 51.3456 336 56 336C57.3832 346.263 62.3605 356.747 70.0394 363.816C79.5688 372.588 88 371.493 88 386C79.5149 386.74 71.1442 390.196 63 392.576C43.8064 398.184 24.0897 401.925 13.5147 421C7.34118 432.135 8 443.717 8 456C8 465.666 7.9498 475.334 8.00077 485C8.0213 488.892 7.91642 493.455 12.1088 495.258C16.806 497.278 23.9759 496 29 496L66 496L180 496L213 496C217.49 496 223.683 497.068 227.891 495.258C233.652 492.78 232 484.022 232 479C232 460.584 231.367 450.529 215 439L216 480L200 480C200 476.13 200.927 470.673 198.821 467.228C196.167 462.887 187.833 462.887 185.179 467.228C183.073 470.673 184 476.13 184 480L56 480C56 476.13 56.9272 470.673 54.821 467.228C52.1666 462.887 43.8334 462.887 41.179 467.228C39.0728 470.673 40 476.13 40 480L24 480C24 465.714 21.1741 447.434 26.8796 434C34.5807 415.867 54.0636 413.159 71 408.291C76.7439 406.64 83.998 403.15 89.9961 403.217C94.4757 403.267 97.6313 408.153 101.015 410.557C106.113 414.18 111.781 415.92 118 415.996C124.804 416.079 131.048 415.529 136.999 411.881C140.837 409.528 144.503 404.005 149.015 403.269C160.389 401.412 177.769 411.425 189 414C182.902 400.925 166.536 387.267 152 386C152 345.627 103.236 369.961 83.0147 350.907C65.4833 334.387 78.4142 315.033 71.3966 296C69.5105 290.884 63.7545 286.755 60 283C51.0353 274.035 42.3714 263.306 32 256z"/>
<path style="fill:#01a6d1; stroke:none;" d="M231 260C231 267.391 228.222 281.905 233.434 287.772C238.605 293.593 252.75 292.448 260 293L231 260M304 261L305 262L304 261M261 276L262 277L261 276M269 277L270 278L269 277M92.1088 280.742C83.1854 284.559 86.8853 308.821 99.8912 303.258C108.815 299.441 105.115 275.179 92.1088 280.742M140.109 280.742C131.279 284.523 134.452 309.012 147.891 303.258C156.721 299.477 153.548 274.988 140.109 280.742M307 280L308 281L307 280z"/>
<path style="fill:#016aa2; stroke:none;" d="M101 281L102 282L101 281M102 282L103 283L102 282z"/>
<path style="fill:#01a6d1; stroke:none;" d="M290 283L291 284L290 283M51 288L52 289L51 288z"/>
<path style="fill:#ffffff; stroke:none;" d="M56 320L56 288C35.0571 289.713 35.0571 318.287 56 320M184 288L184 320C204.943 318.287 204.943 289.713 184 288z"/>
<path style="fill:#01a6d1; stroke:none;" d="M47 289L48 290L47 289z"/>
<path style="fill:#01ccde; stroke:none;" d="M192 289L193 290L192 289z"/>
<path style="fill:#01a6d1; stroke:none;" d="M277 289L278 290L277 289M45 290L46 291L45 290z"/>
<path style="fill:#016aa2; stroke:none;" d="M195 291L196 292L195 291z"/>
<path style="fill:#01a6d1; stroke:none;" d="M464 291L465 292L464 291M43 292L44 293L43 292z"/>
<path style="fill:#016aa2; stroke:none;" d="M196 292L197 293L196 292z"/>
<path style="fill:#01ccde; stroke:none;" d="M257 292L258 293L257 292z"/>
<path style="fill:#01a6d1; stroke:none;" d="M455 292L456 293L455 292M42 293L43 294L42 293M261 293L262 294L261 293z"/>
<path style="fill:#01ccde; stroke:none;" d="M198 295L199 296L198 295z"/>
<path style="fill:#01a6d1; stroke:none;" d="M262 295L263 296L262 295M406 298L407 299L406 298z"/>
<path style="fill:#01ccde; stroke:none;" d="M263 300L264 301L263 300z"/>
<path style="fill:#016aa2; stroke:none;" d="M89 301L90 302L89 301z"/>
<path style="fill:#01a6d1; stroke:none;" d="M299 301L300 302L299 301z"/>
<path style="fill:#016aa2; stroke:none;" d="M90 302L91 303L90 302z"/>
<path style="fill:#01a6d1; stroke:none;" d="M338 309L339 310L338 309M342 310L343 311L342 310z"/>
<path style="fill:#01ccde; stroke:none;" d="M198 312L199 313L198 312z"/>
<path style="fill:#016aa2; stroke:none;" d="M196 315L197 316L196 315M195 316L196 317L195 316z"/>
<path style="fill:#01ccde; stroke:none;" d="M258 316L259 317L258 316z"/>
<path style="fill:#016aa2; stroke:none;" d="M280 316L281 317L280 316z"/>
<path style="fill:#01ccde; stroke:none;" d="M192 318L193 319L192 318M276 321L277 322L276 321z"/>
<path style="fill:#01a6d1; stroke:none;" d="M329 324L330 325L329 324M332 325L333 326L332 325z"/>
<path style="fill:#01ccde; stroke:none;" d="M272 326L273 327L272 326z"/>
<path style="fill:#01a6d1; stroke:none;" d="M100 328L101 329L100 328z"/>
<path style="fill:#016aa2; stroke:none;" d="M120 344C116.708 339.327 109.183 328.973 103.001 328.546C95.7823 328.049 93.6538 339.413 99.2284 342.821C104.278 345.908 114.249 344 120 344z"/>
<path style="fill:#01a6d1; stroke:none;" d="M105 328C109.448 334.314 116.729 343.623 125 343.981C131.595 344.266 153.476 342.113 141.682 330.318C135.478 324.113 113.407 328 105 328M98 329L99 330L98 329z"/>
<path style="fill:#016aa2; stroke:none;" d="M141 329L142 330L141 329z"/>
<path style="fill:#01a6d1; stroke:none;" d="M97 330L98 331L97 330z"/>
<path style="fill:#016aa2; stroke:none;" d="M142 330L143 331L142 330z"/>
<path style="fill:#01a6d1; stroke:none;" d="M306 330L307 331L306 330M308 330L309 331L308 330M302 332L303 333L302 332z"/>
<path style="fill:#01ccde; stroke:none;" d="M299 334L300 335L299 334z"/>
<path style="fill:#01a6d1; stroke:none;" d="M386 334L387 335L386 334z"/>
<path style="fill:#016aa2; stroke:none;" d="M319 335L320 336L319 335z"/>
<path style="fill:#01ccde; stroke:none;" d="M296 336L297 337L296 336z"/>
<path style="fill:#01a6d1; stroke:none;" d="M321 336L322 337L321 336z"/>
<path style="fill:#01ccde; stroke:none;" d="M165 339L166 340L165 339M292 339L293 340L292 339M287 343L288 344L287 343z"/>
<path style="fill:#01a6d1; stroke:none;" d="M337 345L338 346L337 345z"/>
<path style="fill:#01ccde; stroke:none;" d="M309 349L310 350L309 349z"/>
<path style="fill:#0101ff; stroke:none;" d="M60 350L61 351L60 350z"/>
<path style="fill:#01ccde; stroke:none;" d="M179 350L180 351L179 350M306 350L307 351L306 350M311 350L312 351L311 350M313 351L314 352L313 351z"/>
<path style="fill:#016aa2; stroke:none;" d="M315 352L316 353L315 352z"/>
<path style="fill:#01ccde; stroke:none;" d="M317 352L318 353L317 352z"/>
<path style="fill:#0101ff; stroke:none;" d="M88 355L89 356L88 355z"/>
<path style="fill:#01a6d1; stroke:none;" d="M322 355C322.091 361.933 321.316 377.833 327.228 382.397C332.369 386.364 344.765 384 351 384C343.763 373.726 332.274 362.237 322 355z"/>
<path style="fill:#0101ff; stroke:none;" d="M90 356L91 357L90 356z"/>
<path style="fill:#01ccde; stroke:none;" d="M149 356L150 357L149 356M297 357L298 358L297 357z"/>
<path style="fill:#016aa2; stroke:none;" d="M137 359L138 360L137 359M173 359L174 360L173 359z"/>
<path style="fill:#01ccde; stroke:none;" d="M322 361L323 362L322 361z"/>
<path style="fill:#01a6d1; stroke:none;" d="M409 361L410 362L409 361M339.333 362.667L339.667 363.333L339.333 362.667z"/>
<path style="fill:#01ccde; stroke:none;" d="M322 363L323 364L322 363z"/>
<path style="fill:#016aa2; stroke:none;" d="M167 365L168 366L167 365z"/>
<path style="fill:#0101ff; stroke:none;" d="M76 368L77 369L76 368z"/>
<path style="fill:#01ccde; stroke:none;" d="M163 368L164 369L163 368z"/>
<path style="fill:#016aa2; stroke:none;" d="M161 369L162 370L161 369M323 372L324 373L323 372z"/>
<path style="fill:#01ccde; stroke:none;" d="M153 373L154 374L153 373z"/>
<path style="fill:#ffffff; stroke:none;" d="M104 376C104.016 381.684 104.156 388.168 107.653 392.957C113.846 401.437 127.473 400.909 132.992 391.985C135.885 387.306 135.985 381.322 136 376L104 376z"/>
<path style="fill:#01a6d1; stroke:none;" d="M377 379L378 380L377 379M135 384L136 385L135 384M167 390L189.385 413.211L205.91 423.09L232 455C232 448.163 232.855 440.685 231.251 434C223.71 402.583 193.955 397.149 167 390z"/>
<path style="fill:#016aa2; stroke:none;" d="M169 390L170 391L169 390M171.667 391.333L172.333 391.667L171.667 391.333z"/>
<path style="fill:#0101ff; stroke:none;" d="M39 399L40 400L39 399z"/>
<path style="fill:#01ccde; stroke:none;" d="M200 399L201 400L200 399z"/>
<path style="fill:#016aa2; stroke:none;" d="M205 401L206 402L205 401z"/>
<path style="fill:#ffffff; stroke:none;" d="M24 480L40 480C40 476.267 39.277 471.488 41.179 468.109C44.0725 462.969 51.9275 462.969 54.821 468.109C56.723 471.488 56 476.267 56 480L184 480C184 476.267 183.277 471.488 185.179 468.109C188.072 462.969 195.928 462.969 198.821 468.109C200.723 471.488 200 476.267 200 480L216 480C216 459.845 220.94 431.189 200.999 418.559C192.61 413.247 181.395 411.864 172 408.975C165.42 406.952 155.955 402.273 149.039 402.782C145.063 403.075 142.068 407.771 138.996 409.956C133.2 414.078 127.074 415.998 120 415.998C112.926 415.998 106.8 414.078 101.004 409.956C97.9317 407.771 94.9369 403.075 90.9606 402.782C84.0448 402.273 74.5804 406.952 68 408.975C58.5977 411.866 47.4023 413.255 39 418.559C18.9904 431.191 24 459.768 24 480z"/>
<path style="fill:#01ccde; stroke:none;" d="M207 402L208 403L207 402z"/>
<path style="fill:#01a6d1; stroke:none;" d="M156 404L157 405L156 404z"/>
<path style="fill:#0101ff; stroke:none;" d="M95 405L96 406L95 405M144 405L145 406L144 405z"/>
<path style="fill:#016aa2; stroke:none;" d="M213 406L214 407L213 406z"/>
<path style="fill:#0101ff; stroke:none;" d="M98 408L99 409L98 408M141 408L142 409L141 408M66 409L67 410L66 409z"/>
<path style="fill:#01ccde; stroke:none;" d="M173 409L174 410L173 409z"/>
<path style="fill:#016aa2; stroke:none;" d="M192 414L193 415L192 414M194 415L195 416L194 415M222 415L223 416L222 415M199 417L200 418L199 417z"/>
<path style="fill:#0101ff; stroke:none;" d="M36 420L37 421L36 420z"/>
<path style="fill:#01ccde; stroke:none;" d="M203 420L204 421L203 420z"/>
<path style="fill:#016aa2; stroke:none;" d="M227 423L228 424L227 423z"/>
<path style="fill:#0101ff; stroke:none;" d="M11 425L12 426L11 425z"/>
<path style="fill:#01ccde; stroke:none;" d="M208 425L209 426L208 425M228 425L229 426L228 425z"/>
<path style="fill:#016aa2; stroke:none;" d="M211 429L212 430L211 429M230 431L231 432L230 431M213 433L214 434L213 433M214 435L215 436L214 435z"/>
<path style="fill:#01ccde; stroke:none;" d="M214 437L215 438L214 437z"/>
</svg>
