<?xml version="1.0" standalone="yes"?>
<svg xmlns="http://www.w3.org/2000/svg" width="512" height="512">
<path style="fill:#ffffff; stroke:none;" d="M0 0L0 13L1 13C3.68964 7.35123 7.3512 3.68964 13 1L0 0z"/>
<path style="fill:#8dceff; stroke:none;" d="M142 240L142 200L40 200L40 40L142 40L142 0L44 0C32.7335 0 15.2635 -3.44696 6.18519 4.52933C-4.88195 14.253 0 38.648 0 52L0 185C0 199.165 -5.46627 226.483 7.09336 236.211C16.3721 243.397 33.8747 240 45 240L142 240z"/>
<path style="fill:#adb3ff; stroke:none;" d="M142 0L142 40L200 40L200 200L142 200L142 240L207 240C216.378 240 227.392 241.95 234.671 234.671C245.154 224.189 240 197.766 240 184L240 53C240 39.7593 244.791 15.4484 234.671 5.3287C227.392 -1.95038 216.378 0 207 0L142 0z"/>
<path style="fill:#ffffff; stroke:none;" d="M227 0L227 1C245.474 9.79605 240 33.9926 240 51L240 185C240 199.098 245.012 224.124 233.815 234.671C224.582 243.368 207.7 240 196 240L100 240L32 240C18.8478 240 7.49145 240.633 1 227L0 227L0 285L1 285C8.52038 269.206 25.2246 268.842 37 280.04C57.8091 299.83 77.6938 320.694 98 341C102.513 345.513 113.315 360.793 120 360.793C126.685 360.793 137.487 345.513 142 341C163.072 319.928 183.383 294.687 207 276.529C217.265 268.638 231.898 271.32 238.08 283.001C244.64 295.394 235.257 305.74 227 314L171 370C166.487 374.513 151.207 385.315 151.207 392C151.207 398.685 166.487 409.487 171 414C192.072 435.072 217.313 455.383 235.471 479C244.282 490.461 239.604 504.998 227 511L227 512L285 512L285 511C274.708 506.099 268.143 493.968 273.92 483C281.298 468.992 297.879 457.121 309 446L452 303C465.594 289.406 495.392 252.22 511 285L512 285L512 135L511 135C509.577 203.943 431.658 250.282 369 238.195C300.641 225.009 258.341 154.479 275.884 88C281.31 67.4406 292.97 48.8792 308 34.0038C325.474 16.7104 351.768 1.5209 377 1C365.306 -3.90692 344.73 0 332 0L227 0z"/>
<path style="fill:#d890fd; stroke:none;" d="M316 26C320.806 46.1866 317 71.2498 317 92L318 92L321 82C326.453 78.4417 329.542 70.8022 334.09 66.0146C343.865 55.725 357.16 47.0594 371 43.4784C387.654 39.1693 406.123 39.7006 422 46.7315C435.996 52.9293 448.135 62.4298 456.958 75C489.522 121.398 461.701 186.228 407 197.789C382.716 202.922 357.427 194.926 339.004 178.711C333.376 173.757 324.806 165.452 323 158L321 159L322 156L319 155L320 152L318 149C314.694 156.879 317 169.466 317 178C317 187.076 313.422 205.788 318.024 213.675C323.894 223.736 340.746 229.566 351 233.424C392.856 249.171 442.577 238.149 475 207.91C540.593 146.737 514.502 34.8175 431 5.69522C401.067 -4.74426 366.374 -1.53204 338 11.8889C330.008 15.6692 323.508 21.4932 316 26z"/>
<path style="fill:#ffffff; stroke:none;" d="M407 0L407 1C457.227 2.0369 508.854 54.1589 511 104L512 104L512 0L407 0z"/>
<path style="fill:#adb3ff; stroke:none;" d="M351 6L352 7L351 6z"/>
<path style="fill:#ffffff; stroke:none;" d="M341 10L342 11L341 10M442 10L443 11L442 10M455 17L456 18L455 17z"/>
<path style="fill:#adb3ff; stroke:none;" d="M325 19L326 20L325 19M324 20L325 21L324 20z"/>
<path style="fill:#ffffff; stroke:none;" d="M322 21L323 22L322 21z"/>
<path style="fill:#adb3ff; stroke:none;" d="M318.667 24.3333L319.333 24.6667L318.667 24.3333M317 214L317.192 149.09L312.745 115.745L316.91 92L317 27C301.32 34.0363 289.524 53.971 282.695 69C261.248 116.206 271.297 183.768 317 214z"/>
<path style="fill:#ffffff; stroke:none;" d="M313 28L314 29L313 28z"/>
<path style="fill:#d890fd; stroke:none;" d="M312 29L313 30L312 29M311 30L312 31L311 30M309 32L310 33L309 32z"/>
<path style="fill:#ffffff; stroke:none;" d="M40 40L40 200L200 200L200 40L40 40z"/>
<path style="fill:#d890fd; stroke:none;" d="M301 40L302 41L301 40z"/>
<path style="fill:#ffffff; stroke:none;" d="M391 40.5941C377.39 41.0859 365.037 44.3876 353 50.7816C282.385 88.2916 313.177 202.291 393 199.406C406.61 198.914 418.963 195.612 431 189.218C501.637 151.697 470.797 37.7104 391 40.5941z"/>
<path style="fill:#ffffff; stroke:none;" d="M300 41L301 42L300 41z"/>
<path style="fill:#adb3ff; stroke:none;" d="M379 41L380 42L379 41M404 41L405 42L404 41z"/>
<path style="fill:#ffffff; stroke:none;" d="M483 41L484 42L483 41z"/>
<path style="fill:#adb3ff; stroke:none;" d="M370 43L371 44L370 43z"/>
<path style="fill:#ffffff; stroke:none;" d="M364 45L365 46L364 45M357 48L358 49L357 48M426 48L427 49L426 48M490 50L491 51L490 50z"/>
<path style="fill:#d890fd; stroke:none;" d="M291 53L292 54L291 53z"/>
<path style="fill:#adb3ff; stroke:none;" d="M348 53L349 54L348 53z"/>
<path style="fill:#ffffff; stroke:none;" d="M494 56L495 57L494 56z"/>
<path style="fill:#d890fd; stroke:none;" d="M283 67L284 68L283 67z"/>
<path style="fill:#adb3ff; stroke:none;" d="M332 67L333 68L332 67M331 68L332 69L331 68z"/>
<path style="fill:#ffffff; stroke:none;" d="M282 69L283 70L282 69z"/>
<path style="fill:#adb3ff; stroke:none;" d="M325 76L326 77L325 76z"/>
<path style="fill:#d890fd; stroke:none;" d="M277 82L278 83L277 82z"/>
<path style="fill:#adb3ff; stroke:none;" d="M321 82L322 83L321 82z"/>
<path style="fill:#ffffff; stroke:none;" d="M320 85L321 86L320 85z"/>
<path style="fill:#adb3ff; stroke:none;" d="M318 87L319 88L318 87z"/>
<path style="fill:#ffffff; stroke:none;" d="M317 92L318 93L317 92z"/>
<path style="fill:#d890fd; stroke:none;" d="M314 102L315 103L314 102z"/>
<path style="fill:#ffffff; stroke:none;" d="M272 104L273 105L272 104M511 104L512 105L511 104z"/>
<path style="fill:#d890fd; stroke:none;" d="M312 114L313 115L312 114M312 116L313 117L312 116M312 123L313 124L312 123M312 127L313 128L312 127z"/>
<path style="fill:#ffffff; stroke:none;" d="M272 135L273 136L272 135z"/>
<path style="fill:#d890fd; stroke:none;" d="M314 138L315 139L314 138M315 141L316 142L315 141M315 143L316 144L315 143M316 146L317 147L316 146z"/>
<path style="fill:#ffffff; stroke:none;" d="M317 147L318 148L317 147z"/>
<path style="fill:#adb3ff; stroke:none;" d="M318 151L319 152L318 151M319.333 153.667L319.667 154.333L319.333 153.667z"/>
<path style="fill:#ffffff; stroke:none;" d="M320 154L321 155L320 154M507 154L508 155L507 154z"/>
<path style="fill:#adb3ff; stroke:none;" d="M321.333 157.667L321.667 158.333L321.333 157.667M322 159L323 160L322 159z"/>
<path style="fill:#d890fd; stroke:none;" d="M278 160L279 161L278 160z"/>
<path style="fill:#adb3ff; stroke:none;" d="M323 160L324 161L323 160M325 163L326 164L325 163z"/>
<path style="fill:#ffffff; stroke:none;" d="M455 167L456 168L455 167M282 170L283 171L282 170z"/>
<path style="fill:#d890fd; stroke:none;" d="M283 172L284 173L283 172z"/>
<path style="fill:#ffffff; stroke:none;" d="M498 176L499 177L498 176z"/>
<path style="fill:#adb3ff; stroke:none;" d="M339 179L340 180L339 179z"/>
<path style="fill:#ffffff; stroke:none;" d="M289 183L290 184L289 183M494 183L495 184L494 183M293 189L294 190L293 189M490 189L491 190L490 189z"/>
<path style="fill:#adb3ff; stroke:none;" d="M355 190L356 191L355 190M364 194L365 195L364 194M374 197L375 198L374 197z"/>
<path style="fill:#ffffff; stroke:none;" d="M300 198L301 199L300 198M483 198L484 199L483 198z"/>
<path style="fill:#d890fd; stroke:none;" d="M312 210L313 211L312 210z"/>
<path style="fill:#ffffff; stroke:none;" d="M313 211L314 212L313 211M470 211L471 212L470 211z"/>
<path style="fill:#adb3ff; stroke:none;" d="M317 214L318 215L317 214M318.667 215.333L319.333 215.667L318.667 215.333M320 216L321 217L320 216M321.667 217.333L322.333 217.667L321.667 217.333z"/>
<path style="fill:#ffffff; stroke:none;" d="M322 218L323 219L322 218z"/>
<path style="fill:#adb3ff; stroke:none;" d="M325 220L326 221L325 220z"/>
<path style="fill:#ffffff; stroke:none;" d="M328 222L329 223L328 222M455 222L456 223L455 222M335 226L336 227L335 226z"/>
<path style="fill:#adb3ff; stroke:none;" d="M337 227L338 228L337 227M351 233L352 234L351 233z"/>
<path style="fill:#ffffff; stroke:none;" d="M426 235L427 236L426 235z"/>
<path style="fill:#8dceff; stroke:none;" d="M143 444L142 382L143 340C137.182 344.099 127.113 359.944 120 359.944C113.451 359.944 102.45 344.45 98 340L42 284C33.3209 275.335 21.4539 266.93 9.01466 274.483C-1.78812 281.042 -2.74671 296.444 4.53241 306C22.275 329.291 47.2894 349.289 68 370C72.4502 374.45 87.9444 385.451 87.9444 392C87.9444 398.549 72.4502 409.55 68 414C48.3414 433.659 28.4107 453.083 9.01466 473C-1.14105 483.429 -5.43551 503.047 11.0008 510.583C23.7709 516.437 34.5562 507.44 43 499L98 444C102.45 439.55 113.451 424.056 120 424.056C127.113 424.056 137.182 439.901 143 444z"/>
<path style="fill:#adb3ff; stroke:none;" d="M213 272.652C205.386 275.002 199.423 282.577 194 288L159 323C153.787 328.214 144.448 334.635 142.434 342C137.817 358.879 142 382.472 142 400C142 411.923 137.666 434.596 143.858 445C147.907 451.803 155.433 457.433 161 463L197 499C205.765 507.762 215.877 516.182 228.999 510.467C240.879 505.293 243.307 488.982 236.211 479C218.963 454.741 192.055 434.055 171 413C167.057 409.057 151.056 397.54 151.056 392C151.056 389.213 155.228 386.663 157 384.961C162.431 379.746 167.676 374.324 173 369L215 327C222.223 319.777 231.377 312.673 236.867 304C247.473 287.244 232.062 266.768 213 272.652z"/>
<path style="fill:#ffffff; stroke:none;" d="M485 272L486 273L485 272z"/>
<path style="fill:#d890fd; stroke:none;" d="M294 461L317 439L317 512L456 512C469.766 512 496.189 517.154 506.671 506.671C517.034 496.309 512 470.591 512 457L512 323C512 307.792 518.116 278.568 499 272.8C476.57 266.032 455.587 298.413 442 312L343 411C327.051 426.949 306.983 442.569 294 461z"/>
<path style="fill:#8dceff; stroke:none;" d="M206 276L207 277L206 276z"/>
<path style="fill:#ffffff; stroke:none;" d="M0 298L1 299L0 298M239 298L240 299L239 298z"/>
<path style="fill:#ffffff; stroke:none;" d="M0 299L0 485L1 485C5.71775 475.085 15.3447 467.655 23 460L66 417C71.8496 411.15 86.6302 401.12 88.6543 393C90.2586 386.565 72.2621 373.262 68 369C44.9937 345.994 21.3436 323.451 0 299M471 342L385 428L342 472L472 472L472 381C472 369.842 475.308 352.266 471 342z"/>
<path style="fill:#8dceff; stroke:none;" d="M151 389L152 390L151 389M150 390L151 391L150 390M149.333 391.667L149.667 392.333L149.333 391.667M150 393L151 394L150 393M151 394L152 395L151 394z"/>
<path style="fill:#ffffff; stroke:none;" d="M27 511L27 512L213 512C188.549 490.656 166.006 467.006 143 444C138.738 439.738 125.435 421.741 119 423.346C110.88 425.37 100.85 440.15 95 446L52 489C44.3447 496.655 36.9148 506.282 27 511z"/>
<path style="fill:#adb3ff; stroke:none;" d="M316 439C303.282 451.718 280.751 466.346 273.533 483C268.729 494.085 274.07 509.768 287 511.786C296.589 513.283 307.296 512 317 512L317 462L316 439z"/>
<path style="fill:#ffffff; stroke:none;" d="M272 485L273 486L272 485M0 498L1 499L0 498M239 498L240 499L239 498z"/>
<path style="fill:#ffffff; stroke:none;" d="M0 499L0 512L13 512L13 511L0 499M511 499C508.31 504.649 504.649 508.31 499 511L499 512L512 512L511 499z"/>
<path style="fill:#ffffff; stroke:none;" d="M26 511L27 512L26 511M226 511L227 512L226 511z"/>
</svg>
