<?xml version="1.0" standalone="yes"?>
<svg xmlns="http://www.w3.org/2000/svg" width="512" height="512">
<path style="fill:#ffffff; stroke:none;" d="M0 0L0 50L1 50C2.94516 26.2171 25.7488 4.13354 49 1C36.348 -4.30896 13.7879 0 0 0z"/>
<path style="fill:#26eda3; stroke:none;" d="M0 126L41 126L41 71C41 62.0835 40.075 53.0355 47.1852 46.3287C53.9397 39.9574 63.3002 40 72 40L117 40L292 40L334 40C342.273 40 351.175 39.9963 357.826 45.6836C366.047 52.7123 365 62.2094 365 72L365 126L406 126C406 91.1898 415.804 41.1971 386.996 15.1736C363.888 -5.70111 330.688 0 302 0L103 0C74.0706 0 40.9081 -5.66498 18.0147 16.0903C-9.68982 42.4173 0 91.441 0 126z"/>
<path style="fill:#ffffff; stroke:none;" d="M357 0L357 1C378.77 3.94589 397.68 22.2141 403.572 43C407.491 56.8279 406 71.7681 406 86L406 158L406 196C406 201.431 407.295 208.85 405.397 214C403.379 219.472 397.021 223.979 393 228C383.855 237.145 375.585 248.544 365 256L365 106L365 68C365 61.4795 365.726 54.7046 361.751 49.0903C355.978 40.9366 346.197 40.0035 337 40L292 40L110 40L68 40C60.006 40.0128 51.1483 40.7341 45.5324 47.1852C39.3986 54.2312 41 64.3628 41 73L41 133L41 373L41 438C41 447.747 39.1833 458.485 47.0941 465.786C57.7706 475.64 81.4914 471 95 471L222 471L213 512L241 512C244.101 512 249.661 513.036 252.262 510.972C257.664 506.684 258.322 488.593 259.884 482C265.75 457.251 267.709 426.234 280.429 404C289.951 387.356 305.665 374.492 318.996 361C337.542 342.231 355.338 322.662 374 304C386.849 291.151 399.155 277.845 412 265C415.287 261.713 421.983 252.056 427 252.056C433.759 252.056 445.387 268.387 450 273C469.757 292.757 489.177 317.923 512 334L512 0L357 0z"/>
<path style="fill:#26eda3; stroke:none;" d="M180 79L140 126L177 126C182.039 126 189.166 127.275 193.91 125.397C198.416 123.613 211.619 110.097 209.824 105.015C208.647 101.681 204.53 99.1971 202 96.9498C195.224 90.9316 188.259 82.8286 180 79M94 126L123 126C112.224 111.91 104.366 111.284 94 126M219 126L326 126L326 121L244 121C237.364 121 220.396 117.638 219 126z"/>
<path style="fill:#1bd5be; stroke:none;" d="M0 126L0 256L41 256L41 126L0 126M136 193L194 126L153 126C144.246 126 137.549 125.262 133 134C120.958 125.527 100.254 119.955 88 132.005C85.7677 134.2 81.2068 137.518 81.2068 141C81.2068 146.044 90.5422 152.665 94 155.715C107.02 167.199 120.185 185.669 136 193M219 126L219 162L326 162L326 126L219 126M365 126L365 256L383.039 239L405.397 215L406 188L406 126L365 126M133 255C126.723 250.579 115.928 234.204 108 234.207C100.927 234.21 89.7532 250.651 86 256L156 256C164.541 256 177.941 258.551 185.91 255.397C193.194 252.514 200.242 240.841 205.281 235C206.967 233.046 209.76 230.732 210.079 228C210.858 221.318 192.728 209.431 188 205.429C186.027 203.759 183.073 200.529 180.17 201.345C175.541 202.645 171.04 210.566 167.925 214C156.955 226.095 139.886 240.231 133 255M219 241L219 256L326 256L326 241L219 241M421 256L433 256C428.817 250.276 425.183 250.276 421 256z"/>
<path style="fill:#10bed9; stroke:none;" d="M0 256L0 393L41 393L41 256L0 256M136 314L186 256L112 256C104.695 256 90.2232 253.254 84.0633 257.603C76.7136 262.792 86.9615 270.176 91 273.83C104.639 286.172 119.298 306.222 136 314M219 256L219 282L326 282L326 256L219 256M288 393L326 393C331.431 393 338.85 394.295 344 392.397C353.63 388.846 362.26 375.332 369.09 368C387.597 348.131 411.363 330.198 427 308L428 308L455 335L455 336L419 372L400 393L440 393C445.077 393 452.344 394.3 457 391.972C469.229 385.858 479.403 369.597 489 360C495.078 353.922 507.998 345.204 510.824 337C512.97 330.771 497.935 319.935 494 316L449 271C443.48 265.48 437.41 256.379 429 256.019C412.754 255.324 400.325 276.401 389.985 287C366.927 310.637 343.774 334.142 320.961 358C310.027 369.435 296.772 379.739 288 393z"/>
<path style="fill:#ffffff; stroke:none;" d="M427 308C402.995 332.005 379.994 357.005 356 381C345.69 391.311 328.065 403.719 321.752 417C318.779 423.254 335.895 435.976 340 439.995C341.815 441.772 344.19 444.793 347 444.793C350.501 444.793 353.776 440.223 356 438C362.51 431.493 368.486 424.514 375 418C402.009 390.991 427.995 363.005 455 336L455 335L427 308z"/>
<path style="fill:#10bed9; stroke:none;" d="M133 375C125.613 369.796 117.926 356.527 109 354.345C102.111 352.661 90.2625 370.525 85.99 375C84.031 377.052 80.5354 379.75 81.3457 383C85.0042 397.675 110.256 393 121 393L157 393C161.335 393 167.814 394.183 171.715 391.972C180.79 386.827 188.637 373.842 195.424 366C199.637 361.132 207.558 355.167 209.673 349C212.038 342.103 192.711 329.324 188 325.289C185.989 323.567 183.041 320.514 180.09 321.342C175.453 322.642 170.909 330.519 167.845 334C156.949 346.377 139.955 360.065 133 375z"/>
<path style="fill:#ffffff; stroke:none;" d="M511 337C477.654 370.346 445.147 404.458 412.004 438C397.131 453.052 383.262 472.413 365 483.536C347.841 493.988 326.325 496.133 307 500.424C291.002 503.978 274.341 509.665 258 511L258 512L512 512L512 389L512 354L511 337z"/>
<path style="fill:#05a8f3; stroke:none;" d="M0 393C0 429.488 -9.51196 478.421 26 501.896C43.2533 513.301 62.2818 512 82 512L167 512L200 512C203.388 512 209.549 513.153 212.411 510.972C215.087 508.933 215.345 503.058 216 500C218.053 490.416 221.22 480.795 222 471L93 471C78.3014 471 55.8563 475.63 45.3403 462.985C39.8305 456.359 41 448.056 41 440L41 393L0 393M91 393L91 394L136 434L171 393L91 393M253 512C271.215 511.216 290.229 504.371 308 500.424C327.013 496.202 347.938 494.007 365 484.124C382.538 473.966 396.195 455.478 410.039 441C425.044 425.308 443.477 410.778 456 393L415 393C409.799 393 402.586 391.708 398 394.603C385.867 402.263 373.82 417.184 364.424 428C360.55 432.46 353.91 442.241 348 443.793C345.139 444.545 342.824 441.746 341 439.991C337.044 436.183 320.667 423.874 322.207 418C324.587 408.924 338.619 400.639 344 393L304 393C299.25 393 291.531 391.547 287.301 394.028C277.68 399.67 274.348 417.094 272.21 427C266.085 455.375 258.527 483.502 253 512z"/>
<path style="fill:#ffffff; stroke:none;" d="M0 462L0 512L52 512L52 511C32.9526 510.17 14.9769 495.261 6.3233 479C3.44352 473.588 2.84018 467.303 0 462z"/>
</svg>
