<?xml version="1.0" standalone="yes"?>
<svg xmlns="http://www.w3.org/2000/svg" width="512" height="512">
<path style="fill:#ffffff; stroke:none;" d="M0 0L0 512L512 512L512 0L0 0z"/>
<path style="fill:#ef5570; stroke:none;" d="M104 48C75.2381 48 28.2771 38.7857 17.4398 75C13.5262 88.078 16 104.437 16 118L32 118C32 105.851 29.5652 90.3036 34.9198 79C45.6075 56.4379 83.7806 64 104 64C104 74.1849 101.426 88.5219 105.533 98C113.18 115.645 138.759 116.936 148.867 101C155.03 91.2815 152 75.0797 152 64L232 64C232 74.1849 229.426 88.5219 233.533 98C241.18 115.644 266.759 116.936 276.867 101C283.03 91.2814 280 75.0798 280 64L360 64C360 74.1849 357.426 88.5219 361.533 98C369.18 115.644 394.759 116.937 404.867 101C411.03 91.2814 408 75.0798 408 64C428.219 64 466.393 56.4379 477.08 79C482.435 90.3036 480 105.852 480 118L496 118C496 104.437 498.474 88.078 494.56 75C483.709 38.7409 436.804 48 408 48C408 39.9597 408.897 31.7367 403.606 25.0038C393.197 11.7559 370.648 12.8702 362.417 28C359.112 34.0759 360 41.3343 360 48L280 48C280 39.9597 280.897 31.7367 275.606 25.0038C265.197 11.7559 242.648 12.8702 234.417 28C231.112 34.0759 232 41.3343 232 48L152 48C152 39.9596 152.897 31.7367 147.606 25.0038C137.197 11.7559 114.648 12.8702 106.417 28C103.112 34.0759 104 41.3343 104 48z"/>
<path style="fill:#d168c1; stroke:none;" d="M124 33L125 34L124 33z"/>
<path style="fill:#ffffff; stroke:none;" d="M125.108 33.7462C120.043 35.8344 120.023 42.4064 120.001 47C119.938 59.7722 118.048 74.4302 120.329 86.9992C121.252 92.0836 125.33 96.547 130.892 94.2538C135.957 92.1656 135.977 85.5936 135.999 81C136.062 68.2278 137.952 53.5698 135.671 41.0008C134.748 35.9164 130.67 31.453 125.108 33.7462z"/>
<path style="fill:#d168c1; stroke:none;" d="M252 33L253 34L252 33z"/>
<path style="fill:#ffffff; stroke:none;" d="M253.108 33.7462C248.043 35.8344 248.023 42.4065 248.001 47C247.938 59.7722 246.048 74.4302 248.329 86.9992C249.252 92.0836 253.33 96.5469 258.892 94.2538C263.957 92.1656 263.977 85.5935 263.999 81C264.062 68.2278 265.952 53.5698 263.671 41.0008C262.748 35.9165 258.67 31.453 253.108 33.7462z"/>
<path style="fill:#d168c1; stroke:none;" d="M380 33L381 34L380 33z"/>
<path style="fill:#ffffff; stroke:none;" d="M381.108 33.7462C376.043 35.8344 376.023 42.4065 376.001 47C375.938 59.7722 374.048 74.4302 376.329 86.9992C377.252 92.0836 381.33 96.547 386.892 94.2538C391.957 92.1656 391.977 85.5935 391.999 81C392.062 68.2278 393.952 53.5698 391.671 41.0008C390.748 35.9165 386.67 31.453 381.108 33.7462z"/>
<path style="fill:#d168c1; stroke:none;" d="M121 36L122 37L121 36M249 36L250 37L249 36M377 36L378 37L377 36z"/>
<path style="fill:#ffffff; stroke:none;" d="M32 144L480 144C480 123.641 488.049 82.0222 468.999 68.6489C454.453 58.437 424.963 64 408 64C408 74.7866 410.911 90.4737 405.005 100C394.837 116.403 370.39 115.896 361.92 98C357.444 88.5444 360 74.2544 360 64L280 64C280 74.2544 282.556 88.5444 278.08 98C269.61 115.896 245.163 116.403 234.995 100C229.089 90.4738 232 74.7866 232 64L152 64C152 74.7867 154.911 90.4737 149.005 100C138.837 116.403 114.39 115.896 105.92 98C101.444 88.5444 104 74.2544 104 64C87.037 64 57.5472 58.437 43.0008 68.6489C23.9512 82.0222 32 123.641 32 144z"/>
<path style="fill:#d168c1; stroke:none;" d="M107 101L108 102L107 101M148 101L149 102L148 101M235 101L236 102L235 101M276 101L277 102L276 101M363 101L364 102L363 101M404 101L405 102L404 101M139 109L140 110L139 109M267 109L268 110L267 109M395 109L396 110L395 109M16 118L16 275L32 275L32 160L480 160L480 275L496 275L496 118L480 118L480 144L32 144L32 118L16 118z"/>
<path style="fill:#ffffff; stroke:none;" d="M32 160L32 384L32 441C32 450.146 31.107 461.105 36.6489 468.999C44.0875 479.595 56.2419 480 68 480L132 480L386 480L444 480C455.35 480 466.971 479.714 474.606 469.996C480.7 462.241 480 451.297 480 442L480 386L480 160L32 160z"/>
<path style="fill:#d168c1; stroke:none;" d="M268 275L258 263C267.167 260.792 279.577 262.037 287.956 257.682C295.279 253.876 301.174 236.688 303 229L305 229C306.801 236.584 312.459 252.71 319.108 257.142C326.582 262.124 341.207 261.343 350 263L339 275C345.524 275 355.855 277.035 361.91 274.701C369.055 271.948 382.058 256.772 372.772 250.009C361.643 241.904 341.003 250.011 330.39 241.397C323.093 235.475 319.2 219.426 315.219 211C312.779 205.836 310.594 200.088 304 200.088C297.406 200.088 295.22 205.836 292.781 211C288.8 219.426 284.907 235.475 277.61 241.397C267.028 249.985 246.526 242.231 235.228 250.09C228.812 254.553 233.142 262.199 237.015 266.449C246.104 276.424 255.426 275 268 275M164.109 216.742C160.272 218.393 160.055 222.354 160.004 226C159.892 234.039 156.33 255.181 161.742 261.427C164.269 264.343 168.519 263.993 172 264C180.941 264.018 195.635 266.809 203.891 263.258C207.729 261.607 207.945 257.646 207.996 254C208.11 245.87 211.675 224.802 206.258 218.434C203.794 215.537 199.41 216.006 196 216C187.057 215.985 172.368 213.19 164.109 216.742z"/>
<path style="fill:#ef5570; stroke:none;" d="M290 216L291 217L290 216M317 216L318 217L317 216z"/>
<path style="fill:#d168c1; stroke:none;" d="M404.109 216.742C400.272 218.393 400.055 222.354 400.004 226C399.892 234.038 396.33 255.181 401.742 261.427C404.269 264.343 408.519 263.993 412 264C420.941 264.018 435.635 266.809 443.891 263.258C447.728 261.607 447.945 257.646 447.996 254C448.11 245.87 451.675 224.801 446.258 218.434C443.794 215.537 439.41 216.006 436 216C427.057 215.985 412.368 213.19 404.109 216.742z"/>
<path style="fill:#ffffff; stroke:none;" d="M303 229C300.693 237.009 294.754 253.772 286.985 257.682C278.841 261.78 267.705 260.247 259 263C264.076 271.781 275.942 277.619 279.397 287C282.722 296.029 276.738 309.665 276 319L304 306.21L332 319C331.262 309.665 325.278 296.029 328.603 287C332.058 277.619 343.924 271.781 349 263C340.106 260.188 325.245 262.305 318.213 255.721C310.894 248.869 311.247 234.626 303 229z"/>
<path style="fill:#ef5570; stroke:none;" d="M302 231L303 232L302 231z"/>
<path style="fill:#ffffff; stroke:none;" d="M176 232L176 248L192 248L192 232L176 232M416 232L416 248L432 248L432 232L416 232z"/>
<path style="fill:#ef5570; stroke:none;" d="M325 233L326 234L325 233M343 244L344 245L343 244M313 248L314 249L313 248z"/>
<path style="fill:#9488ed; stroke:none;" d="M293 250L294 251L293 250M314 250L315 251L314 250M162 262L163 263L162 262M259 262L260 263L259 262M402 262L403 263L402 262M234 263L235 264L234 263M258 263L259 264L258 263M349 263L350 264L349 263M373 263L374 264L373 263M235 264L236 265L235 264z"/>
<path style="fill:#ef5570; stroke:none;" d="M259 264L260 265L259 264M348 264L349 265L348 264M260 265L261 266L260 265M347 265L348 266L347 265z"/>
<path style="fill:#9488ed; stroke:none;" d="M237 266L238 267L237 266M370 266L371 267L370 266M368 268L369 269L368 268M242 271L243 272L242 271M365 271L366 272L365 271M244 273L245 274L244 273M245 274L245 275C250.3 279.622 262.145 288.519 262.098 296C262.033 306.37 258.761 317.751 257.08 328C256.348 332.467 254.857 337.993 258.434 341.682C262.395 345.768 268.742 343.688 273 341.409C281.885 336.654 293.041 327.233 303 325.468C306.846 324.786 310.803 328.031 314 329.769C322.308 334.286 335.117 345.267 344.996 343.848C352.308 342.798 352.078 335.677 351.271 330C349.822 319.802 343.769 304.034 346.032 294C347.736 286.44 357.709 282.058 361 275C354.474 275 345.346 273.346 339.17 275.564C321.001 282.088 330.293 305.562 332 319L304 306.086L276 319C277.711 305.532 286.944 282.168 269 275.313C262.239 272.73 252.348 275.364 245 274M16 275L16 376L32 376L32 275L16 275M480 275L480 376L496 376L496 275L480 275z"/>
<path style="fill:#d168c1; stroke:none;" d="M247 276L248 277L247 276M336 277L337 278L336 277z"/>
<path style="fill:#ef5570; stroke:none;" d="M279 285L280 286L279 285M328 285L329 286L328 285z"/>
<path style="fill:#9488ed; stroke:none;" d="M84.0586 297.028C76.2132 301.325 79.997 323.247 80 331C80.0013 334.354 79.3941 338.806 81.7423 341.566C84.2063 344.463 88.5903 343.994 92 344C100.382 344.014 117.517 347.256 124.772 342.821C128.187 340.733 127.981 336.507 127.999 333C128.041 324.993 131.606 304.721 126.258 298.434C123.794 295.537 119.41 296.006 116 296C107.556 295.986 91.5411 292.93 84.0586 297.028M164.059 297.028C156.213 301.325 159.997 323.247 160 331C160.001 334.354 159.394 338.806 161.742 341.566C164.206 344.463 168.59 343.994 172 344C180.382 344.014 197.517 347.256 204.772 342.821C208.187 340.733 207.981 336.507 207.999 333C208.041 324.993 211.606 304.721 206.258 298.434C203.794 295.537 199.41 296.006 196 296C187.556 295.986 171.541 292.93 164.059 297.028M404.059 297.028C396.213 301.325 399.997 323.247 400 331C400.001 334.354 399.394 338.806 401.742 341.566C404.206 344.463 408.59 343.994 412 344C420.382 344.014 437.517 347.256 444.772 342.821C448.187 340.733 447.981 336.507 447.999 333C448.041 324.993 451.606 304.721 446.258 298.434C443.794 295.537 439.41 296.006 436 296C427.556 295.986 411.541 292.93 404.059 297.028z"/>
<path style="fill:#d168c1; stroke:none;" d="M82 297L83 298L82 297M162 297L163 298L162 297M402 297L403 298L402 297M81 298L82 299L81 298M161 298L162 299L161 298M401 298L402 299L401 298z"/>
<path style="fill:#ffffff; stroke:none;" d="M96 312L96 328L112 328L112 312L96 312M176 312L176 328L192 328L192 312L176 312M416 312L416 328L432 328L432 312L416 312z"/>
<path style="fill:#42adea; stroke:none;" d="M16 376L16 444C16 460.09 15.5939 475.196 29.0147 486.674C40.9041 496.843 54.3552 496 69 496L126 496L381 496L443 496C458.144 496 471.999 496.863 483.96 485.816C496.505 474.229 496 459.669 496 444L496 376L480 376L480 440C480 452.547 480.366 464.915 469.996 473.786C461.53 481.029 449.412 480 439 480L374 480L133 480L73 480C63.1154 480 51.2928 481.067 43.0008 474.606C32.0262 466.056 32 453.73 32 441L32 376L16 376z"/>
<path style="fill:#9488ed; stroke:none;" d="M84 376L85 377L84 376z"/>
<path style="fill:#42adea; stroke:none;" d="M126 377L124 378C120.492 373.986 110.06 376 105 376C98.938 376 88.2888 373.98 83.1481 377.742C80.0517 380.008 80.0248 383.512 80.0008 387C79.9418 395.564 76.6536 413.37 81.179 420.772C83.267 424.187 87.4926 423.981 91 423.999C98.6136 424.039 121.016 427.728 126.258 421.566C128.776 418.606 128 413.591 128 410C128.001 399.927 130.43 386.206 126 377z"/>
<path style="fill:#9488ed; stroke:none;" d="M164 376L165 377L164 376z"/>
<path style="fill:#42adea; stroke:none;" d="M206 377L204 378C200.492 373.986 190.06 376 185 376C178.938 376 168.289 373.98 163.148 377.742C160.052 380.008 160.025 383.512 160.001 387C159.942 395.564 156.654 413.37 161.179 420.772C163.267 424.187 167.493 423.981 171 423.999C178.614 424.039 201.016 427.728 206.258 421.566C208.776 418.606 208 413.591 208 410C208.001 399.927 210.43 386.206 206 377z"/>
<path style="fill:#9488ed; stroke:none;" d="M244 376L245 377L244 376z"/>
<path style="fill:#42adea; stroke:none;" d="M286 377L284 378C280.492 373.986 270.06 376 265 376C258.938 376 248.289 373.98 243.148 377.742C240.052 380.008 240.025 383.512 240.001 387C239.942 395.564 236.654 413.37 241.179 420.772C243.267 424.187 247.493 423.981 251 423.999C258.614 424.039 281.016 427.728 286.258 421.566C288.776 418.606 288 413.591 288 410C288.001 399.927 290.43 386.206 286 377z"/>
<path style="fill:#9488ed; stroke:none;" d="M324 376L325 377L324 376z"/>
<path style="fill:#42adea; stroke:none;" d="M366 377L364 378C360.492 373.986 350.06 376 345 376C338.938 376 328.289 373.98 323.148 377.742C320.052 380.008 320.025 383.512 320.001 387C319.942 395.564 316.654 413.37 321.179 420.772C323.267 424.187 327.493 423.981 331 423.999C338.614 424.039 361.016 427.728 366.258 421.566C368.776 418.606 368 413.591 368 410C368.001 399.927 370.43 386.206 366 377z"/>
<path style="fill:#9488ed; stroke:none;" d="M404 376L405 377L404 376z"/>
<path style="fill:#42adea; stroke:none;" d="M446 377L444 378C440.492 373.986 430.06 376 425 376C418.938 376 408.289 373.98 403.148 377.742C400.052 380.008 400.025 383.512 400.001 387C399.942 395.564 396.654 413.37 401.179 420.772C403.267 424.187 407.493 423.981 411 423.999C418.614 424.039 441.016 427.728 446.258 421.566C448.776 418.606 448 413.591 448 410C448.001 399.927 450.43 386.206 446 377z"/>
<path style="fill:#9488ed; stroke:none;" d="M82 377L83 378L82 377M124 377L125 378L124 377M162 377L163 378L162 377M204 377L205 378L204 377M242 377L243 378L242 377M284 377L285 378L284 377M322 377L323 378L322 377M364 377L365 378L364 377M402 377L403 378L402 377M444 377L445 378L444 377M81 378L82 379L81 378M161 378L162 379L161 378M241 378L242 379L241 378M321 378L322 379L321 378M401 378L402 379L401 378z"/>
<path style="fill:#ffffff; stroke:none;" d="M96 392L96 408L112 408L112 392L96 392M176 392L176 408L192 408L192 392L176 392M256 392L256 408L272 408L272 392L256 392M336 392L336 408L352 408L352 392L336 392M416 392L416 408L432 408L432 392L416 392z"/>
</svg>
