<?xml version="1.0" standalone="yes"?>
<svg xmlns="http://www.w3.org/2000/svg" width="512" height="512">
<path style="fill:#ffffff; stroke:none;" d="M0 0L0 196L1 196C3.41795 179.566 10.0226 162.98 14.5787 147L42.5787 49C47.7131 30.9913 50.79 7.67184 72 1.92746C82.5679 -0.934692 92.9341 3.09906 103 6L153 20.2909C202.312 34.461 251.659 48.5111 301 62.5787C322.996 68.8499 350.943 72.5469 371 83.5178C390.904 94.4048 388.256 112.436 384 131L476 131C489.304 131 503.788 128.108 511 142L512 142L512 0L0 0z"/>
<path style="fill:#16a6ff; stroke:none;" d="M345 206C340.956 223.48 335.036 240.727 330.14 258C327.329 267.92 325.61 279.947 320.583 288.996C315.122 298.828 297.693 300.526 289.603 292.272C285.292 287.873 288.724 276.415 288.961 271C289.545 257.664 288.763 244.614 279.381 234.17C259.987 212.58 222.545 214.848 207.118 240C201.712 248.814 201.581 258.083 202 268L182 263L182 264L222 302C218.99 289.001 214.331 263.093 220.674 251C230.732 231.823 258.867 231.228 269.633 250C275.627 260.45 271.869 274.615 271.09 286C269.684 306.527 268.987 330.858 273.482 351C275.755 361.185 288.194 367.758 294 376L295 376L291 357L389 357C390.675 378.229 387.428 398.587 381.28 419C378.625 427.817 370.62 439.863 370.846 449C370.983 454.498 378.544 459.922 383 462C396.682 426.734 406 395.119 406 357L478 357C486.995 357 499.709 359.399 506.895 352.775C516.979 343.481 512 317.668 512 305L512 180C512 167.746 516.602 144.297 506.895 135.214C499.005 127.831 483.017 131 473 131L384 131C389.71 113.143 390.46 92.724 371 82.9923C350.225 72.603 323.339 68.7101 301 62.2909C252.021 48.2165 202.979 34.3653 154 20.2909L104 6C93.3002 2.91641 82.2278 -1.1134 71 1.92746C43.7507 9.3075 40.1461 56.9437 33.5725 80C31.2784 88.0465 23.666 102.457 29.3179 110C35.9244 118.818 45.9782 120.564 56 123.421L111 139.14C143.02 148.216 174.994 157.454 207 166.579C252.816 179.641 298.565 195.355 345 206z"/>
<path style="fill:#ffffff; stroke:none;" d="M61 46C98.3903 51.5013 136.624 67.2075 173 77.5787C237.268 95.902 302.348 112.647 366 133C368.555 126.326 372.94 116.192 371.456 109C369.577 99.8931 361.987 97.1337 354 94.8596C341.33 91.2521 328.658 87.648 316 84C254.364 66.2369 192.638 48.7638 131 31C117.996 27.2523 105.016 23.4083 92 19.7099C85.7937 17.9464 79.0577 15.5999 73.0039 19.0895C64.6571 23.9008 62.1929 37.1487 61 46M56 61L44 103L131 127.579L350 190L361 148C322.944 142.401 283.995 126.34 247 115.709C183.434 97.4429 118.993 81.1425 56 61z"/>
<path style="fill:#3e75ff; stroke:none;" d="M33 80L34 81L33 80M29 94L30 95L29 94M45 98L46 99L45 98M26 105C22.8086 128.584 12.6038 153.086 6 176C2.58592 187.846 -2.44701 200.54 0.927469 213C3.19397 221.369 9.18016 228.386 17 232.088C28.6261 237.592 42.6453 239.899 55 243.421C69.6753 247.605 84.917 253.781 100 256L100 325C100 334.281 98.5593 345.821 106.105 352.775C113.128 359.249 125.213 357 134 357L204 357C203.378 386.992 176.985 406.568 168.721 434C163.006 452.974 162.304 474.493 165.438 494C166.53 500.795 168.691 514.358 178.956 510.396C185.846 507.736 183.633 499.466 182.611 494C179.439 477.037 179.463 459.76 183.884 443C188.864 424.124 202.17 411.919 210.63 395C220.256 375.747 222.992 352.262 223 331C223.003 323.035 224.63 308.976 220.892 301.83C212.865 286.486 193.298 275.061 182 262C169.913 261.612 155.711 254.76 144 251.421C115.33 243.247 86.6829 234.989 58 226.86C46.2409 223.527 24.6319 221.455 18.0895 209.999C14.712 204.085 17.1557 198.011 18.8596 192L28.5787 158C31.6285 147.315 33.6014 126.405 42 119L42 118C34.8818 117.324 30.2473 110.192 26 105z"/>
<path style="fill:#16a6ff; stroke:none;" d="M25 108L26 109L25 108M24 112L25 113L24 112z"/>
<path style="fill:#ffffff; stroke:none;" d="M202 268C201.835 258.77 201.806 250.327 206.525 242C221.711 215.203 259.441 212.205 279.381 235.09C288.289 245.313 289.804 257.952 288.91 271C288.547 276.315 285.459 287.676 289.028 292.272C295.76 300.944 315.539 298.936 320.583 289.985C325.809 280.712 327.515 268.194 330.421 258C335.246 241.079 342.433 223.382 345 206C271.768 182.584 196.901 163.527 123 142.291C103.341 136.642 83.6708 131.03 64 125.421C58.4553 123.84 46.8696 118.038 41.2785 119.788C36.3736 121.322 34.574 136.535 33.2909 141C28.4098 157.986 23.9234 175.129 18.659 192C16.2352 199.767 14.0228 208.457 21.108 214.606C26.1002 218.939 33.814 220.106 40 221.86L75 231.86C117.017 243.82 159.222 259.147 202 268z"/>
<path style="fill:#3e75ff; stroke:none;" d="M43 119L44 120L43 119z"/>
<path style="fill:#16a6ff; stroke:none;" d="M38 122L39 123L38 122M36 129L37 130L36 129z"/>
<path style="fill:#3e75ff; stroke:none;" d="M95 134L96 135L95 134z"/>
<path style="fill:#16a6ff; stroke:none;" d="M33 140L34 141L33 140z"/>
<path style="fill:#ffffff; stroke:none;" d="M379 147C371.189 184.741 357.651 221.919 347.14 259C342.812 274.27 340.544 295.8 327.961 306.671C315.187 317.707 301.578 313.017 287 310L289 341L443 341C445.197 314.1 469.734 290.54 496 287L496 201C469.851 195.926 445.28 174.912 443 147L379 147M460 147C461.58 165.101 478.275 181.382 496 184L496 147L460 147z"/>
<path style="fill:#16a6ff; stroke:none;" d="M29 154L30 155L29 154z"/>
<path style="fill:#679aff; stroke:none;" d="M27 161L28 162L27 161M25 168L26 169L25 168z"/>
<path style="fill:#16a6ff; stroke:none;" d="M56 169L57 170L56 169z"/>
<path style="fill:#3e75ff; stroke:none;" d="M123 204L102 181L95 181C90.4468 175.343 65.332 168.801 58 169.518C53.238 169.983 49.556 174.157 50.2477 178.985C51.2796 186.186 61.3443 187.257 67 188.86C85.3355 194.057 104.118 201.272 123 204z"/>
<path style="fill:#16a6ff; stroke:none;" d="M52 171L53 172L52 171M51 172L52 173L51 172M70 172L71 173L70 172M77 174L78 175L77 174M23 175L24 176L23 175M91 178L92 179L91 178M95 180L96 181L95 180M97 180L98 181L97 180M100 181L101 182L100 181z"/>
<path style="fill:#0101ff; stroke:none;" d="M21 182L22 183L21 182z"/>
<path style="fill:#16a6ff; stroke:none;" d="M102 182L122 205C132.539 207.181 144.261 213.618 155 213.707C160.497 213.752 165.114 208.508 163.481 203.043C161.644 196.89 153.262 195.922 148 194.421C132.99 190.142 117.484 184.085 102 182z"/>
<path style="fill:#3e75ff; stroke:none;" d="M105 182L106 183L105 182z"/>
<path style="fill:#16a6ff; stroke:none;" d="M53 184L54 185L53 184z"/>
<path style="fill:#0101ff; stroke:none;" d="M19 189L20 190L19 189z"/>
<path style="fill:#16a6ff; stroke:none;" d="M90 195L91 196L90 195M104 199L105 200L104 199M108 200L109 201L108 200M111 201L112 202L111 201M117 202L118 203L117 202M118 203L119 204L118 203M120 203L121 204L120 203M0 211L1 212L0 211z"/>
<path style="fill:#3e75ff; stroke:none;" d="M161 211L162 212L161 211z"/>
<path style="fill:#ffffff; stroke:none;" d="M0 212L0 512L512 512L512 346L511 346C504.557 358.412 493.094 357 481 357L406 357C406 399.638 394.757 436.993 375.753 475C370.513 485.48 365.221 498.002 357.471 506.891C353.284 511.694 346.172 511.647 343.758 504.985C341.958 500.018 346.242 495.022 348.576 491C354.654 480.526 360.466 469.903 365.742 459C380.647 428.195 393.377 391.635 389 357L291 357C292.805 370.979 296.845 385.716 303.873 398C306.973 403.419 314.274 408.263 316.012 414.015C317.636 419.389 312.285 424.523 307 423.537C295.115 421.32 287.134 402.92 283.204 393C270.575 361.123 267.278 318.968 271.285 285C273.519 266.072 275.897 240.485 251 236.326C236.764 233.947 220.977 241.89 218.329 257C216.419 267.895 219.771 281.055 220.83 292C223.066 315.107 224.459 338.993 220.385 362C218.248 374.07 215.188 386.237 209.124 397C199.185 414.642 186.601 427.365 182.449 448C179.859 460.871 179.686 474.014 181.286 487C181.99 492.71 185.954 501.757 182.396 506.941C172.774 520.962 166.257 498.854 165.285 492C162.284 470.83 163.364 448.119 171.065 428C180.62 403.038 203.412 385.48 204 357L134 357C124.606 357 113.359 359.148 106.105 351.895C98.4192 344.21 100 332.932 100 323L100 256C80.8217 251.603 61.9336 245.226 43 239.86C32.8259 236.976 20.5169 235.1 12.0039 228.471C6.19813 223.949 3.93773 217.852 0 212z"/>
<path style="fill:#16a6ff; stroke:none;" d="M417 212.71C388.639 213.087 373.826 250.194 397.004 268.61C403.861 274.058 411.534 275.206 420 274.985C459.095 273.965 455.921 212.192 417 212.71M23 216L24 217L23 216z"/>
<path style="fill:#0101ff; stroke:none;" d="M25 217L26 218L25 217z"/>
<path style="fill:#16a6ff; stroke:none;" d="M42 222L43 223L42 222M49 224L50 225L49 224M56 226L57 227L56 226z"/>
<path style="fill:#679aff; stroke:none;" d="M11 228L12 229L11 228z"/>
<path style="fill:#0101ff; stroke:none;" d="M63 228L64 229L63 228z"/>
<path style="fill:#ffffff; stroke:none;" d="M414 229.534C395.361 233.967 401.634 262.702 420 258.463C438.844 254.114 432.509 225.131 414 229.534z"/>
<path style="fill:#0101ff; stroke:none;" d="M70 230L71 231L70 230M77 232L78 233L77 232M27 235L28 236L27 235M34 237L35 238L34 237M41 239L42 240L41 239M48 241L49 242L48 241M55 243L56 244L55 243z"/>
<path style="fill:#16a6ff; stroke:none;" d="M62 245L63 246L62 245M69 247L70 248L69 247M76 249L77 250L76 249z"/>
<path style="fill:#3e75ff; stroke:none;" d="M220 250L221 251L220 250z"/>
<path style="fill:#16a6ff; stroke:none;" d="M83 251L84 252L83 251M157 255L158 256L157 255z"/>
<path style="fill:#ffffff; stroke:none;" d="M117 261L117 287C144.673 289.26 167.397 314.244 171 341L206 341L205.039 303L202.972 286.703L180 279L117 261z"/>
<path style="fill:#16a6ff; stroke:none;" d="M178 261L179 262L178 261M179 262L180 263L179 262M125 263L126 264L125 263z"/>
<path style="fill:#3e75ff; stroke:none;" d="M185 263L186 264L185 263M188 264L189 265L188 264z"/>
<path style="fill:#16a6ff; stroke:none;" d="M132 265L133 266L132 265z"/>
<path style="fill:#3e75ff; stroke:none;" d="M192 265L193 266L192 265z"/>
<path style="fill:#16a6ff; stroke:none;" d="M139 267L140 268L139 267z"/>
<path style="fill:#3e75ff; stroke:none;" d="M199 267L200 268L199 267z"/>
<path style="fill:#16a6ff; stroke:none;" d="M146 269L147 270L146 269M153 271L154 272L153 271M160 273L161 274L160 273M167 275L168 276L167 275M174 277L175 278L174 277M178 278L179 279L178 278z"/>
<path style="fill:#679aff; stroke:none;" d="M181 279L182 280L181 279z"/>
<path style="fill:#16a6ff; stroke:none;" d="M185 280L186 281L185 280z"/>
<path style="fill:#679aff; stroke:none;" d="M188 281L189 282L188 281z"/>
<path style="fill:#16a6ff; stroke:none;" d="M192 282L193 283L192 282M195 283L196 284L195 283M199 284L200 285L199 284M201 284L202 285L201 284M138 293L139 294L138 293M204 293L205 294L204 293M143 296L144 297L143 296z"/>
<path style="fill:#3e75ff; stroke:none;" d="M220 297L221 298L220 297z"/>
<path style="fill:#ffffff; stroke:none;" d="M117 304L117 341L154 341C151.546 322.863 135.647 305.628 117 304z"/>
<path style="fill:#16a6ff; stroke:none;" d="M221 304L222 305L221 304z"/>
<path style="fill:#ffffff; stroke:none;" d="M460 341L485 341L494.397 339.972L496 330L496 304C478.043 306.652 461.604 322.631 460 341z"/>
<path style="fill:#16a6ff; stroke:none;" d="M140 315L141 316L140 315z"/>
<path style="fill:#0101ff; stroke:none;" d="M141 316L142 317L141 316M146 322L147 323L146 322z"/>
<path style="fill:#16a6ff; stroke:none;" d="M148 325L149 326L148 325M151 331L152 332L151 331z"/>
<path style="fill:#0101ff; stroke:none;" d="M153 337L154 338L153 337z"/>
<path style="fill:#3e75ff; stroke:none;" d="M288 337L289 338L288 337z"/>
<path style="fill:#16a6ff; stroke:none;" d="M222 340L223 341L222 340z"/>
<path style="fill:#0101ff; stroke:none;" d="M100 341L101 342L100 341z"/>
<path style="fill:#3e75ff; stroke:none;" d="M272 343L273 344L272 343M273.333 351.667L273.667 352.333L273.333 351.667M274 355C276.481 374.617 280.984 395.674 292.746 412C296.745 417.55 305.811 428.511 313.606 422.258C322.302 415.281 309.976 406.435 306.105 401C300.63 393.313 299.195 384.002 294.721 376C290.38 368.235 281.211 360.079 274 355z"/>
<path style="fill:#0101ff; stroke:none;" d="M112 356L113 357L112 356z"/>
<path style="fill:#16a6ff; stroke:none;" d="M274.333 358.667L274.667 359.333L274.333 358.667M220 361L221 362L220 361z"/>
<path style="fill:#0101ff; stroke:none;" d="M203 363L204 364L203 363z"/>
<path style="fill:#679aff; stroke:none;" d="M275 365L276 366L275 365z"/>
<path style="fill:#16a6ff; stroke:none;" d="M276 370L277 371L276 370M277 374L278 375L277 374z"/>
<path style="fill:#0101ff; stroke:none;" d="M216 379L217 380L216 379z"/>
<path style="fill:#16a6ff; stroke:none;" d="M198 380L199 381L198 380M296 380L297 381L296 380M279 382L280 383L279 382M297.333 383.667L297.667 384.333L297.333 383.667z"/>
<path style="fill:#0101ff; stroke:none;" d="M214 385L215 386L214 385z"/>
<path style="fill:#16a6ff; stroke:none;" d="M299 389L300 390L299 389z"/>
<path style="fill:#0101ff; stroke:none;" d="M208 398L209 399L208 398z"/>
<path style="fill:#16a6ff; stroke:none;" d="M304 399L305 400L304 399M305 400L306 401L305 400z"/>
<path style="fill:#679aff; stroke:none;" d="M181 407L182 408L181 407z"/>
<path style="fill:#16a6ff; stroke:none;" d="M314 410L315 411L314 410z"/>
<path style="fill:#679aff; stroke:none;" d="M315 411L316 412L315 411z"/>
<path style="fill:#16a6ff; stroke:none;" d="M296 416L297 417L296 416M300 420L301 421L300 420M315 420L316 421L315 420z"/>
<path style="fill:#0101ff; stroke:none;" d="M171 426L172 427L171 426z"/>
<path style="fill:#3e75ff; stroke:none;" d="M372 443L373 444L372 443z"/>
<path style="fill:#0101ff; stroke:none;" d="M165 448L166 449L165 448z"/>
<path style="fill:#3e75ff; stroke:none;" d="M370 448L371 449L370 448M369 450C366.909 459.221 360.679 468.807 355.999 477L348.576 490C345.283 495.674 338.687 516.165 353.96 510.254C363.803 506.444 371.801 484.014 376.244 475C377.853 471.735 381.296 466.778 380.843 463C380.227 457.863 372.908 452.753 369 450z"/>
<path style="fill:#16a6ff; stroke:none;" d="M368.333 452.667L368.667 453.333L368.333 452.667M365 459L366 460L365 459M381 463L382 464L381 463M379 467L380 468L379 467M356 476L357 477L356 476z"/>
<path style="fill:#679aff; stroke:none;" d="M369 487L370 488L369 487z"/>
<path style="fill:#16a6ff; stroke:none;" d="M365 494L366 495L365 494z"/>
<path style="fill:#679aff; stroke:none;" d="M183 506L184 507L183 506M169 508L170 509L169 508M170 509L171 510L170 509z"/>
</svg>
